<svg width="11" height="16" viewBox="0 0 11 16" fill="none" xmlns="http://www.w3.org/2000/svg">
<path d="M10.109 10.0991C10.6026 9.27325 10.93 8.22876 10.9935 7.19525C11.0338 6.5319 10.886 5.83557 10.5659 5.18077C10.0638 4.15216 9.20136 3.57432 8.36821 3.01604C7.74639 2.59946 7.15879 2.20609 6.74343 1.64414L6.66891 1.54396C6.42336 1.21412 6.14605 0.840303 6.10207 0.526342C6.05809 0.208717 5.76979 -0.0172856 5.4546 0.00103895C5.30041 0.0114699 5.15594 0.0801182 5.05047 0.193079C4.94499 0.306039 4.88639 0.454866 4.88654 0.609414V11.4942C4.37468 11.1839 3.74431 10.9933 3.05409 10.9933C1.37068 10.9933 0 12.0891 0 13.4366C0 14.7841 1.37068 15.8799 3.05409 15.8799C4.7375 15.8799 6.10818 14.7841 6.10818 13.4366V6.3169C7.02563 6.66751 8.52702 7.56052 8.93993 9.64585C8.86297 9.75947 8.78967 9.88163 8.70415 9.97936C8.4806 10.2322 8.50503 10.6183 8.75913 10.8406C9.01079 11.0654 9.39682 11.0385 9.62038 10.7856C9.78408 10.6 9.92946 10.3825 10.0687 10.1553C10.0834 10.1382 10.0969 10.1198 10.109 10.0991Z" fill="white"/>
</svg>
