<svg width="28" height="28" viewBox="0 0 28 28" fill="none" xmlns="http://www.w3.org/2000/svg">
<path d="M9.33337 2.33301V5.83301" stroke="#D4A055" stroke-width="1.5" stroke-miterlimit="10" stroke-linecap="round" stroke-linejoin="round"/>
<path d="M18.6666 2.33301V5.83301" stroke="#D4A055" stroke-width="1.5" stroke-miterlimit="10" stroke-linecap="round" stroke-linejoin="round"/>
<path d="M24.5 9.91634V15.9013C23.4617 15.073 22.1433 14.583 20.7083 14.583C19.2733 14.583 17.9317 15.0846 16.8817 15.9363C15.47 17.0446 14.5833 18.783 14.5833 20.708C14.5833 21.8513 14.91 22.948 15.47 23.858C15.9017 24.5697 16.4617 25.188 17.1267 25.6663H9.33333C5.25 25.6663 3.5 23.333 3.5 19.833V9.91634C3.5 6.41634 5.25 4.08301 9.33333 4.08301H18.6667C22.75 4.08301 24.5 6.41634 24.5 9.91634Z" stroke="#D4A055" stroke-width="1.5" stroke-miterlimit="10" stroke-linecap="round" stroke-linejoin="round"/>
<path d="M8.16663 12.833H15.1666" stroke="#D4A055" stroke-width="1.5" stroke-miterlimit="10" stroke-linecap="round" stroke-linejoin="round"/>
<path d="M8.16663 18.667H11.2233" stroke="#D4A055" stroke-width="1.5" stroke-miterlimit="10" stroke-linecap="round" stroke-linejoin="round"/>
<path d="M26.8334 20.708C26.8334 21.8513 26.5067 22.948 25.9467 23.858C25.62 24.418 25.2117 24.908 24.7334 25.3047C23.6601 26.2613 22.26 26.833 20.7084 26.833C19.3667 26.833 18.13 26.4013 17.1267 25.6663C16.4617 25.188 15.9017 24.5697 15.4701 23.858C14.9101 22.948 14.5834 21.8513 14.5834 20.708C14.5834 18.783 15.47 17.0446 16.8817 15.9363C17.9317 15.0846 19.2734 14.583 20.7084 14.583C22.1434 14.583 23.4617 15.073 24.5 15.9013C25.9234 17.0213 26.8334 18.7597 26.8334 20.708Z" stroke="#D4A055" stroke-width="1.5" stroke-miterlimit="10" stroke-linecap="round" stroke-linejoin="round"/>
<path d="M20.7083 23.6253C20.7083 22.0153 22.015 20.7087 23.625 20.7087C22.015 20.7087 20.7083 19.402 20.7083 17.792C20.7083 19.402 19.4016 20.7087 17.7916 20.7087C19.4016 20.7087 20.7083 22.0153 20.7083 23.6253Z" stroke="#D4A055" stroke-width="1.5" stroke-linecap="round" stroke-linejoin="round"/>
</svg>
