<svg width="20" height="20" viewBox="0 0 20 20" fill="none" xmlns="http://www.w3.org/2000/svg">
<path d="M13.6589 5.34229C14.8479 5.34229 16.1091 5.99288 17.0066 7.1167C14.0664 8.7326 14.5443 12.9472 17.5173 14.0757C17.1115 14.9868 16.9146 15.3914 16.3855 16.1968C15.6503 17.3167 14.6155 18.7134 13.3279 18.7271H13.3044C12.1902 18.727 11.8857 17.9898 10.3689 17.9897H10.3455C8.80528 17.9983 8.47241 18.731 7.35327 18.731H7.32983C6.04222 18.7172 5.06008 17.4567 4.32495 16.3325C2.26988 13.1921 2.05504 9.50559 3.32397 7.54834C4.22772 6.16051 5.65066 5.34619 6.98511 5.34619C8.3485 5.3462 9.20544 6.09131 10.3289 6.09131C11.4246 6.0913 12.0895 5.34033 13.6628 5.34033L13.6589 5.34229ZM13.3162 1.24854C13.4754 2.31336 13.0399 3.35107 12.4656 4.0835C11.8693 4.85299 10.8487 5.4536 9.85132 5.45361H9.77612C9.58898 4.43882 10.0667 3.39245 10.6472 2.68701C11.2871 1.90859 12.3797 1.31222 13.3162 1.24854Z" fill="white"/>
</svg>
