<svg width="19" height="19" viewBox="0 0 19 19" fill="none" xmlns="http://www.w3.org/2000/svg">
<path d="M13.9583 14.6386H13.3574C12.7248 14.6386 12.1238 14.8837 11.681 15.3266L10.3288 16.663C9.71199 17.2719 8.70774 17.2719 8.09095 16.663L6.73876 15.3266C6.29594 14.8837 5.68706 14.6386 5.06237 14.6386H4.4693C3.15665 14.6386 2.09705 13.5869 2.09705 12.2901V3.66296C2.09705 2.36613 3.15665 1.31445 4.4693 1.31445H13.9583C15.271 1.31445 16.3306 2.36613 16.3306 3.66296V12.2901C16.3306 13.579 15.271 14.6386 13.9583 14.6386Z" stroke="#D4A055" stroke-width="1.4" stroke-miterlimit="10" stroke-linecap="round" stroke-linejoin="round"/>
<path d="M5.25993 6.96826C5.25993 6.23286 5.8609 5.63184 6.5963 5.63184C7.3317 5.63184 7.93268 6.23286 7.93268 6.96826C7.93268 8.45487 5.82136 8.61302 5.35482 10.0285C5.25993 10.321 5.50506 10.6136 5.81345 10.6136H7.93268" stroke="#D4A055" stroke-width="1.2" stroke-linecap="round" stroke-linejoin="round"/>
<path d="M12.4084 10.6054V6.09021C12.4084 5.88461 12.274 5.70269 12.0763 5.64734C11.8786 5.59199 11.6651 5.67106 11.5544 5.84503C10.985 6.7623 10.3683 7.8061 9.83055 8.72338C9.74356 8.87362 9.74356 9.07131 9.83055 9.22155C9.91753 9.3718 10.0836 9.46664 10.2655 9.46664H13.1675" stroke="#D4A055" stroke-width="1.2" stroke-linecap="round" stroke-linejoin="round"/>
</svg>
