<svg width="18" height="19" viewBox="0 0 18 19" fill="none" xmlns="http://www.w3.org/2000/svg">
<path d="M14.25 7.318V6.25C14.25 4.85761 13.6969 3.52226 12.7123 2.53769C11.7277 1.55312 10.3924 1 9 1C7.60761 1 6.27226 1.55312 5.28769 2.53769C4.30312 3.52226 3.75 4.85761 3.75 6.25V7.318C3.08202 7.60953 2.51347 8.08939 2.11387 8.69891C1.71428 9.30842 1.50096 10.0212 1.5 10.75V15.25C1.50119 16.2442 1.89666 17.1973 2.59967 17.9003C3.30267 18.6033 4.2558 18.9988 5.25 19H12.75C13.7442 18.9988 14.6973 18.6033 15.4003 17.9003C16.1033 17.1973 16.4988 16.2442 16.5 15.25V10.75C16.499 10.0212 16.2857 9.30842 15.8861 8.69891C15.4865 8.08939 14.918 7.60953 14.25 7.318ZM5.25 6.25C5.25 5.25544 5.64509 4.30161 6.34835 3.59835C7.05161 2.89509 8.00544 2.5 9 2.5C9.99456 2.5 10.9484 2.89509 11.6517 3.59835C12.3549 4.30161 12.75 5.25544 12.75 6.25V7H5.25V6.25ZM15 15.25C15 15.8467 14.7629 16.419 14.341 16.841C13.919 17.2629 13.3467 17.5 12.75 17.5H5.25C4.65326 17.5 4.08097 17.2629 3.65901 16.841C3.23705 16.419 3 15.8467 3 15.25V10.75C3 10.1533 3.23705 9.58097 3.65901 9.15901C4.08097 8.73705 4.65326 8.5 5.25 8.5H12.75C13.3467 8.5 13.919 8.73705 14.341 9.15901C14.7629 9.58097 15 10.1533 15 10.75V15.25Z" fill="#D4A055"/>
<path d="M9 11.5C8.80109 11.5 8.61032 11.579 8.46967 11.7197C8.32902 11.8603 8.25 12.0511 8.25 12.25V13.75C8.25 13.9489 8.32902 14.1397 8.46967 14.2803C8.61032 14.421 8.80109 14.5 9 14.5C9.19891 14.5 9.38968 14.421 9.53033 14.2803C9.67098 14.1397 9.75 13.9489 9.75 13.75V12.25C9.75 12.0511 9.67098 11.8603 9.53033 11.7197C9.38968 11.579 9.19891 11.5 9 11.5Z" fill="#D4A055"/>
</svg>
