<svg width="18" height="14" viewBox="0 0 18 14" fill="none" xmlns="http://www.w3.org/2000/svg">
<path d="M0 3.88331L8.71046 3.49609L17.3314 3.88331L8.66571 13.9993L0 3.88331Z" fill="#FFB04C"/>
<path d="M17.3314 3.88397H0L2.76605 0H14.5654L17.3314 3.88397Z" fill="#FFDB6C"/>
<path d="M14.5654 0V3.88397H17.3314L14.5654 0Z" fill="#FFC866"/>
<path d="M14.5499 3.90932L8.66568 13.9988L17.2558 3.97106C17.2855 3.93636 17.2609 3.88281 17.2152 3.88281H14.596C14.5771 3.88281 14.5594 3.8929 14.5499 3.90932Z" fill="#F7A05E"/>
<path d="M2.76605 0H14.5654L8.66571 14L2.76605 0Z" fill="#FFDB6C"/>
<path d="M12.9287 3.88397L14.5654 0H2.76605L4.40276 3.88397H12.9287Z" fill="#FFF2BB"/>
<path d="M4.40277 3.88397L8.66573 0L12.9287 3.88397H4.40277Z" fill="#FFEB8A"/>
</svg>
