<svg width="16" height="19" viewBox="0 0 16 19" fill="none" xmlns="http://www.w3.org/2000/svg">
<path d="M1.10517 5.31247L2.04615 16.6718C2.11358 17.4909 2.81136 18.1332 3.63366 18.1332H12.3038C13.1261 18.1332 13.8239 17.4909 13.8913 16.6718L14.8322 5.31247H1.10517ZM5.31197 16.0082C5.03388 16.0082 4.79992 15.7919 4.78228 15.5102L4.25104 6.93939C4.23287 6.64629 4.45542 6.39416 4.74804 6.37599C5.05152 6.3547 5.29278 6.57988 5.31144 6.87299L5.84269 15.4438C5.86149 15.7473 5.62133 16.0082 5.31197 16.0082ZM8.49995 15.477C8.49995 15.7706 8.26234 16.0082 7.9687 16.0082C7.67506 16.0082 7.43745 15.7706 7.43745 15.477V6.90621C7.43745 6.61257 7.67506 6.37496 7.9687 6.37496C8.26234 6.37496 8.49995 6.61257 8.49995 6.90621V15.477ZM11.6864 6.93943L11.1551 15.5102C11.1377 15.7891 10.9052 16.0215 10.5917 16.0072C10.2991 15.989 10.0765 15.7369 10.0947 15.4438L10.626 6.87302C10.6441 6.57992 10.9009 6.36667 11.1894 6.37602C11.482 6.39419 11.7045 6.64632 11.6864 6.93943ZM14.8749 2.12499H11.6874V1.59374C11.6874 0.714916 10.9725 0 10.0937 0H5.84371C4.96489 0 4.24997 0.714916 4.24997 1.59374V2.12499H1.06249C0.475678 2.12499 0 2.60067 0 3.18748C0 3.77422 0.475678 4.24997 1.06249 4.24997H14.8749C15.4617 4.24997 15.9374 3.77422 15.9374 3.18748C15.9374 2.60067 15.4617 2.12499 14.8749 2.12499ZM10.6249 2.12499H5.31247V1.59374C5.31247 1.30063 5.55061 1.06249 5.84371 1.06249H10.0937C10.3868 1.06249 10.6249 1.30063 10.6249 1.59374V2.12499Z" fill="#E94A4A"/>
</svg>
