<svg width="12" height="14" viewBox="0 0 12 14" fill="none" xmlns="http://www.w3.org/2000/svg">
<path d="M0.809019 4.10156L1.49784 12.8717C1.54721 13.5041 2.058 14 2.65995 14H9.00675C9.60869 14 10.1195 13.5041 10.1688 12.8717L10.8576 4.10156H0.809019ZM3.88853 12.3594C3.68496 12.3594 3.51369 12.1924 3.50078 11.9748L3.11189 5.35765C3.09859 5.13136 3.26151 4.9367 3.47571 4.92267C3.69787 4.90623 3.87447 5.08009 3.88814 5.30638L4.27703 11.9236C4.29079 12.1579 4.11499 12.3594 3.88853 12.3594ZM6.22222 11.9492C6.22222 12.1759 6.04829 12.3594 5.83333 12.3594C5.61838 12.3594 5.44444 12.1759 5.44444 11.9492V5.33203C5.44444 5.10532 5.61838 4.92188 5.83333 4.92188C6.04829 4.92188 6.22222 5.10532 6.22222 5.33203V11.9492ZM8.55478 5.35768L8.16589 11.9749C8.15311 12.1902 7.98296 12.3696 7.75346 12.3586C7.53926 12.3446 7.37634 12.1499 7.38964 11.9236L7.77853 5.30641C7.79183 5.08011 7.97982 4.91548 8.19096 4.9227C8.40516 4.93672 8.56808 5.13138 8.55478 5.35768ZM10.8889 1.64062H8.55556V1.23047C8.55556 0.551961 8.03222 0 7.38889 0H4.27778C3.63445 0 3.11111 0.551961 3.11111 1.23047V1.64062H0.777778C0.348211 1.64062 0 2.00788 0 2.46094C0 2.91394 0.348211 3.28125 0.777778 3.28125H10.8889C11.3185 3.28125 11.6667 2.91394 11.6667 2.46094C11.6667 2.00788 11.3185 1.64062 10.8889 1.64062ZM7.77778 1.64062H3.88889V1.23047C3.88889 1.00417 4.06321 0.820312 4.27778 0.820312H7.38889C7.60345 0.820312 7.77778 1.00417 7.77778 1.23047V1.64062Z" fill="white"/>
</svg>
