<svg width="27" height="27" viewBox="0 0 27 27" fill="none" xmlns="http://www.w3.org/2000/svg">
<g clip-path="url(#clip0_239_3758)">
<path d="M24.5 6.97786C20.615 6.59286 16.7067 6.39453 12.81 6.39453C10.5 6.39453 8.19 6.5112 5.88 6.74453L3.5 6.97786" stroke="#D4A055" stroke-width="1.5" stroke-linecap="round" stroke-linejoin="round"/>
<path d="M9.91675 5.79801L10.1734 4.26967C10.3601 3.16134 10.5001 2.33301 12.4717 2.33301H15.5284C17.5001 2.33301 17.6517 3.20801 17.8267 4.28134L18.0834 5.79801" stroke="#D4A055" stroke-width="1.5" stroke-linecap="round" stroke-linejoin="round"/>
<path d="M21.9916 10.6631L21.2333 22.4114C21.105 24.2431 21 25.6664 17.745 25.6664H10.255C6.99997 25.6664 6.89497 24.2431 6.76663 22.4114L6.0083 10.6631" stroke="#D4A055" stroke-width="1.5" stroke-linecap="round" stroke-linejoin="round"/>
<path d="M12.0518 19.25H15.9368" stroke="#D4A055" stroke-width="1.5" stroke-linecap="round" stroke-linejoin="round"/>
<path d="M11.0833 14.583H16.9166" stroke="#D4A055" stroke-width="1.5" stroke-linecap="round" stroke-linejoin="round"/>
</g>
<defs>
<clipPath id="clip0_239_3758">
<rect width="27" height="27" fill="white"/>
</clipPath>
</defs>
</svg>
