<svg width="28" height="28" viewBox="0 0 28 28" fill="none" xmlns="http://www.w3.org/2000/svg">
<path d="M7 11.6663V9.33301C7 5.47134 8.16667 2.33301 14 2.33301C19.8333 2.33301 21 5.47134 21 9.33301V11.6663" stroke="#D4A055" stroke-width="1.5" stroke-linecap="round" stroke-linejoin="round"/>
<path d="M14 21.5833C15.6109 21.5833 16.9167 20.2775 16.9167 18.6667C16.9167 17.0558 15.6109 15.75 14 15.75C12.3892 15.75 11.0834 17.0558 11.0834 18.6667C11.0834 20.2775 12.3892 21.5833 14 21.5833Z" stroke="#D4A055" stroke-width="1.5" stroke-linecap="round" stroke-linejoin="round"/>
<path d="M19.8333 25.667H8.16665C3.49998 25.667 2.33331 24.5003 2.33331 19.8337V17.5003C2.33331 12.8337 3.49998 11.667 8.16665 11.667H19.8333C24.5 11.667 25.6666 12.8337 25.6666 17.5003V19.8337C25.6666 24.5003 24.5 25.667 19.8333 25.667Z" stroke="#D4A055" stroke-width="1.5" stroke-linecap="round" stroke-linejoin="round"/>
</svg>
