<svg width="18" height="18" viewBox="0 0 18 18" fill="none" xmlns="http://www.w3.org/2000/svg">
<path d="M14.295 14.0023L12.69 10.7998L11.085 14.0023" stroke="#D4A055" stroke-width="1.125" stroke-linecap="round" stroke-linejoin="round"/>
<path d="M11.3775 13.4326H14.0175" stroke="#D4A055" stroke-width="1.125" stroke-linecap="round" stroke-linejoin="round"/>
<path d="M12.69 16.4999C10.59 16.4999 8.88 14.7973 8.88 12.6898C8.88 10.5898 10.5825 8.87988 12.69 8.87988C14.79 8.87988 16.5 10.5823 16.5 12.6898C16.5 14.7973 14.7975 16.4999 12.69 16.4999Z" stroke="#D4A055" stroke-width="1.125" stroke-linecap="round" stroke-linejoin="round"/>
<path d="M3.765 1.5H6.705C8.2575 1.5 9.00751 2.25001 8.97001 3.76501V6.705C9.00751 8.2575 8.2575 9.00752 6.705 8.97002H3.765C2.25 9.00002 1.5 8.24999 1.5 6.69749V3.75751C1.5 2.25001 2.25 1.5 3.765 1.5Z" stroke="#D4A055" stroke-width="1.125" stroke-linecap="round" stroke-linejoin="round"/>
<path d="M6.7575 4.3877H3.7125" stroke="#D4A055" stroke-width="1.125" stroke-linecap="round" stroke-linejoin="round"/>
<path d="M5.2275 3.87793V4.38792" stroke="#D4A055" stroke-width="1.125" stroke-linecap="round" stroke-linejoin="round"/>
<path d="M5.9925 4.37988C5.9925 5.69238 4.965 6.75737 3.705 6.75737" stroke="#D4A055" stroke-width="1.125" stroke-linecap="round" stroke-linejoin="round"/>
<path d="M6.7575 6.75751C6.21 6.75751 5.715 6.465 5.37 6" stroke="#D4A055" stroke-width="1.125" stroke-linecap="round" stroke-linejoin="round"/>
<path d="M1.5 11.25C1.5 14.1525 3.8475 16.5 6.75 16.5L5.9625 15.1875" stroke="#D4A055" stroke-width="1.125" stroke-linecap="round" stroke-linejoin="round"/>
<path d="M16.5 6.75C16.5 3.8475 14.1525 1.5 11.25 1.5L12.0375 2.8125" stroke="#D4A055" stroke-width="1.125" stroke-linecap="round" stroke-linejoin="round"/>
</svg>
