<svg width="28" height="28" viewBox="0 0 28 28" fill="none" xmlns="http://www.w3.org/2000/svg">
<path d="M25.6666 17.4997V10.4997C25.6666 4.66634 23.3333 2.33301 17.4999 2.33301H10.4999C4.66659 2.33301 2.33325 4.66634 2.33325 10.4997V17.4997C2.33325 23.333 4.66659 25.6663 10.4999 25.6663H17.4999C23.3333 25.6663 25.6666 23.333 25.6666 17.4997Z" stroke="#D4A055" stroke-width="1.5" stroke-linecap="round" stroke-linejoin="round"/>
<path d="M9.82337 19.9622C10.835 19.9622 11.655 19.1421 11.655 18.1305C11.655 17.1189 10.835 16.2988 9.82337 16.2988C8.81177 16.2988 7.9917 17.1189 7.9917 18.1305C7.9917 19.1421 8.81177 19.9622 9.82337 19.9622Z" stroke="#D4A055" stroke-width="1.5" stroke-linecap="round" stroke-linejoin="round"/>
<path d="M18.3751 16.9052V9.74183C18.3751 8.2135 17.4184 8.00356 16.4501 8.27189L12.7868 9.27521C12.1218 9.46188 11.6667 9.98689 11.6667 10.7452V12.0285V12.8918V18.1418" stroke="#D4A055" stroke-width="1.5" stroke-linecap="round" stroke-linejoin="round"/>
<path d="M16.5433 18.7366C17.5549 18.7366 18.375 17.9165 18.375 16.9049C18.375 15.8933 17.5549 15.0732 16.5433 15.0732C15.5317 15.0732 14.7117 15.8933 14.7117 16.9049C14.7117 17.9165 15.5317 18.7366 16.5433 18.7366Z" stroke="#D4A055" stroke-width="1.5" stroke-linecap="round" stroke-linejoin="round"/>
<path d="M11.655 12.8805L18.375 11.0488" stroke="#D4A055" stroke-width="1.5" stroke-linecap="round" stroke-linejoin="round"/>
</svg>
