<svg width="11" height="11" viewBox="0 0 11 11" fill="none" xmlns="http://www.w3.org/2000/svg">
<path d="M0.875053 6.34364H4.59386V10.0624C4.59386 10.5455 4.98576 10.9374 5.4688 10.9374C5.95185 10.9374 6.34375 10.5455 6.34375 10.0624V6.34364H10.0626C10.5456 6.34364 10.9375 5.95174 10.9375 5.4687C10.9375 4.98565 10.5456 4.59375 10.0626 4.59375H6.34375V0.874945C6.34375 0.391904 5.95185 0 5.4688 0C4.98576 0 4.59386 0.391904 4.59386 0.874945V4.59375H0.875053C0.392013 4.59375 0.000108719 4.98565 0.000108719 5.4687C0.000108719 5.95174 0.392013 6.34364 0.875053 6.34364Z" fill="#FAFAFA"/>
</svg>
