<svg width="9" height="8" viewBox="0 0 9 8" fill="none" xmlns="http://www.w3.org/2000/svg">
<path d="M8.30628 3.32859L6.46659 5.12192L6.90104 7.65478C6.91034 7.70909 6.90427 7.76493 6.8835 7.81597C6.86273 7.86701 6.82809 7.91122 6.78351 7.94361C6.73893 7.976 6.68617 7.99526 6.63121 7.99923C6.57624 8.0032 6.52127 7.99171 6.47249 7.96607L4.19776 6.77023L1.92332 7.96578C1.87455 7.99142 1.81957 8.00291 1.76461 7.99894C1.70965 7.99497 1.65689 7.9757 1.6123 7.94332C1.56772 7.91093 1.53309 7.86672 1.51232 7.81567C1.49155 7.76463 1.48547 7.7088 1.49478 7.65448L1.92923 5.12162L0.089241 3.32859C0.0497471 3.29011 0.0218136 3.24135 0.00860246 3.18781C-0.00460867 3.13428 -0.00256975 3.07812 0.0144884 3.02568C0.0315466 2.97325 0.0629427 2.92664 0.105123 2.89112C0.147303 2.85561 0.198582 2.83261 0.253157 2.82474L2.79577 2.45556L3.93284 0.15129C4.03237 -0.0504299 4.36315 -0.0504299 4.46268 0.15129L5.59975 2.45556L8.14236 2.82474C8.19681 2.83282 8.24793 2.85593 8.28997 2.89147C8.33201 2.92701 8.3633 2.97356 8.38033 3.02591C8.39736 3.07826 8.39945 3.13432 8.38637 3.18779C8.37329 3.24126 8.34555 3.29002 8.30628 3.32859Z" fill="white"/>
</svg>
