<svg width="32" height="32" viewBox="0 0 32 32" fill="none" xmlns="http://www.w3.org/2000/svg">
<path d="M17.7331 10.8138L19.4931 14.3338C19.7331 14.8138 20.3731 15.2938 20.9065 15.3738L24.0931 15.9071C26.1331 16.2538 26.6131 17.7205 25.1464 19.1871L22.6665 21.6671C22.2531 22.0805 22.0131 22.8938 22.1464 23.4805L22.8531 26.5605C23.4131 28.9871 22.1198 29.9338 19.9731 28.6671L16.9864 26.8938C16.4398 26.5738 15.5598 26.5738 15.0131 26.8938L12.0264 28.6671C9.87978 29.9338 8.58644 28.9871 9.14644 26.5605L9.85315 23.4805C9.98648 22.9071 9.74646 22.0938 9.33313 21.6671L6.85314 19.1871C5.38648 17.7205 5.86645 16.2404 7.90645 15.9071L11.0931 15.3738C11.6265 15.2805 12.2665 14.8138 12.5065 14.3338L14.2665 10.8138C15.2131 8.90712 16.7864 8.90712 17.7331 10.8138Z" stroke="#D4A055" stroke-width="1.5" stroke-linecap="round" stroke-linejoin="round"/>
<path d="M8 12.0003V2.66699" stroke="#D4A055" stroke-width="1.5" stroke-linecap="round" stroke-linejoin="round"/>
<path d="M24 12.0003V2.66699" stroke="#D4A055" stroke-width="1.5" stroke-linecap="round" stroke-linejoin="round"/>
<path d="M16 5.33366V2.66699" stroke="#D4A055" stroke-width="1.5" stroke-linecap="round" stroke-linejoin="round"/>
</svg>
