<svg width="24" height="24" viewBox="0 0 24 24" fill="none" xmlns="http://www.w3.org/2000/svg">
<path d="M19.96 8.96039C19.29 8.22039 18.28 7.79039 16.88 7.64039V6.88039C16.88 5.51039 16.3 4.19039 15.28 3.27039C14.25 2.33039 12.91 1.89039 11.52 2.02039C9.13 2.25039 7.12001 4.56039 7.12001 7.06039V7.64039C5.72001 7.79039 4.71001 8.22039 4.04001 8.96039C3.07001 10.0404 3.10001 11.4804 3.21001 12.4804L3.91001 18.0504C4.12001 20.0004 4.91001 22.0004 9.21001 22.0004H14.79C19.09 22.0004 19.88 20.0004 20.09 18.0604L20.79 12.4704C20.9 11.4804 20.92 10.0404 19.96 8.96039ZM11.66 3.41039C12.66 3.32039 13.61 3.63039 14.35 4.30039C15.08 4.96039 15.49 5.90039 15.49 6.88039V7.58039H8.51001V7.06039C8.51001 5.28039 9.98 3.57039 11.66 3.41039ZM8.42001 13.1504H8.41001C7.86 13.1504 7.41001 12.7004 7.41001 12.1504C7.41001 11.6004 7.86 11.1504 8.41001 11.1504C8.97001 11.1504 9.42001 11.6004 9.42001 12.1504C9.42001 12.7004 8.97001 13.1504 8.42001 13.1504ZM15.42 13.1504H15.41C14.86 13.1504 14.41 12.7004 14.41 12.1504C14.41 11.6004 14.86 11.1504 15.41 11.1504C15.97 11.1504 16.42 11.6004 16.42 12.1504C16.42 12.7004 15.97 13.1504 15.42 13.1504Z" fill="#D4A055"/>
</svg>
