<svg width="24" height="24" viewBox="0 0 24 24" fill="none" xmlns="http://www.w3.org/2000/svg">
<path d="M18.94 5.42043L13.77 2.43043C12.78 1.86043 11.23 1.86043 10.24 2.43043L5.01999 5.44043C2.94999 6.84043 2.82999 7.05043 2.82999 9.28043V14.7104C2.82999 16.9404 2.94999 17.1604 5.05999 18.5804L10.23 21.5704C10.73 21.8604 11.37 22.0004 12 22.0004C12.63 22.0004 13.27 21.8604 13.76 21.5704L18.98 18.5604C21.05 17.1604 21.17 16.9504 21.17 14.7204V9.28043C21.17 7.05043 21.05 6.84043 18.94 5.42043ZM12 15.2504C10.21 15.2504 8.74999 13.7904 8.74999 12.0004C8.74999 10.2104 10.21 8.75043 12 8.75043C13.79 8.75043 15.25 10.2104 15.25 12.0004C15.25 13.7904 13.79 15.2504 12 15.2504Z" fill="#D4A055"/>
</svg>
