<svg width="22" height="20" viewBox="0 0 22 20" fill="none" xmlns="http://www.w3.org/2000/svg">
<path d="M14.7068 13.5129L18.08 16.8861L16.9661 18L13.5929 14.6267C12.38 15.5971 10.8418 16.1776 9.16883 16.1776C5.2558 16.1776 2.08002 13.0018 2.08002 9.08881C2.08002 5.17579 5.2558 2 9.16883 2C13.0819 2 16.2576 5.17579 16.2576 9.08881C16.2576 10.7618 15.6771 12.3 14.7068 13.5129ZM13.1265 12.9284C14.0896 11.9358 14.6823 10.5819 14.6823 9.08881C14.6823 6.04259 12.215 3.57529 9.16883 3.57529C6.12261 3.57529 3.65531 6.04259 3.65531 9.08881C3.65531 12.135 6.12261 14.6023 9.16883 14.6023C10.6619 14.6023 12.0159 14.0096 13.0084 13.0465L13.1265 12.9284Z" fill="#646161"/>
</svg>
